<svg height="512" viewBox="0 0 64 64" width="512" xmlns="http://www.w3.org/2000/svg"><g id="computer_coding" data-name="computer coding"><path d="m59 15h-54a2 2 0 0 0 -2 2v28h58v-28a2 2 0 0 0 -2-2z" fill="#57a4ff"/><path d="m61 45v4a2.006 2.006 0 0 1 -2 2h-54a2.006 2.006 0 0 1 -2-2v-4z" fill="#e0e0e2"/><path d="m51 11v24a2.006 2.006 0 0 1 -2 2h-34a2.006 2.006 0 0 1 -2-2v-24z" fill="#46f8ff"/><path d="m51 11v24a2.006 2.006 0 0 1 -2 2h-4a2.006 2.006 0 0 0 2-2v-24z" fill="#00e7f0"/><path d="m51 5v6h-38v-6a2.006 2.006 0 0 1 2-2h34a2.006 2.006 0 0 1 2 2z" fill="#ffde55"/><path d="m51 5v6h-4v-6a2.006 2.006 0 0 0 -2-2h4a2.006 2.006 0 0 1 2 2z" fill="#ffcd00"/><path d="m43 57 3 4h-28l3-4h4 14z" fill="#e0e0e2"/><path d="m38 51 1 6h-14l1-6z" fill="#57a4ff"/><path d="m61 17v28h-5v-28a2.006 2.006 0 0 0 -2-2h5a2.006 2.006 0 0 1 2 2z" fill="#2488ff"/><path d="m61 45v4a2.006 2.006 0 0 1 -2 2h-5a2.006 2.006 0 0 0 2-2v-4z" fill="#c6c5ca"/><path d="m46 61h-5l-3-4h5z" fill="#c6c5ca"/><path d="m39 57h-5l-1-6h5z" fill="#2488ff"/><path d="m59 14h-7v-9a3.009 3.009 0 0 0 -3-3h-34a3.009 3.009 0 0 0 -3 3v9h-7a3.009 3.009 0 0 0 -3 3v32a3.009 3.009 0 0 0 3 3h19.82l-.67 4h-3.15a1.014 1.014 0 0 0 -.8.4l-3 4a1 1 0 0 0 -.09 1.05.977.977 0 0 0 .89.55h28a.977.977 0 0 0 .89-.55 1 1 0 0 0 -.09-1.05l-3-4a1.014 1.014 0 0 0 -.8-.4h-3.15l-.67-4h19.82a3.009 3.009 0 0 0 3-3v-32a3.009 3.009 0 0 0 -3-3zm-45-9a1 1 0 0 1 1-1h34a1 1 0 0 1 1 1v5h-36zm0 7h36v23a1 1 0 0 1 -1 1h-34a1 1 0 0 1 -1-1zm28.5 46 1.5 2h-24l1.5-2zm-16.32-2 .67-4h10.3l.67 4zm33.82-7a1 1 0 0 1 -1 1h-54a1 1 0 0 1 -1-1v-3h56zm0-5h-56v-27a1 1 0 0 1 1-1h7v19a3.009 3.009 0 0 0 3 3h4v2h-7v2h8a1 1 0 0 0 1-1v-3h6v4h2v-4h6v4h2v-4h6v3a1 1 0 0 0 1 1h8v-2h-7v-2h4a3.009 3.009 0 0 0 3-3v-19h7a1 1 0 0 1 1 1z"/><path d="m46 6h2v2h-2z"/><path d="m42 6h2v2h-2z"/><path d="m38 6h2v2h-2z"/><path d="m26.293 17.293-6 6a1 1 0 0 0 0 1.414l6 6 1.414-1.414-5.293-5.293 5.293-5.293z"/><path d="m37.707 17.293-1.414 1.414 5.293 5.293-5.293 5.293 1.414 1.414 6-6a1 1 0 0 0 0-1.414z"/><path d="m22.513 23h18.974v2h-18.974z" transform="matrix(.316 -.949 .949 .316 -.891 46.763)"/></g></svg>