<svg id="Capa_1" enable-background="new 0 0 512 512" height="512" viewBox="0 0 512 512" width="512" xmlns="http://www.w3.org/2000/svg" xmlns:xlink="http://www.w3.org/1999/xlink"><linearGradient id="SVGID_1_" gradientUnits="userSpaceOnUse" x1="163.757" x2="1007.375" y1="256" y2="256"><stop offset=".0007011211" stop-color="#fff0d5"/><stop offset=".5112" stop-color="#ffdfff"/><stop offset="1" stop-color="#d9ceff"/></linearGradient><path d="m310.075 89.353c-21.43-52.669-73.271-89.723-133.726-89.35-77.124.475-140.536 62.684-142.407 139.786-.923 38.04 12.978 72.821 36.334 98.983 18.619 20.856 27.963 48.325 27.021 76.268-.125 3.714-.144 7.455-.052 11.22 2.464 101.4 89.087 185.801 190.517 185.74 105.133-.063 190.34-85.31 190.34-190.457 0-77.074-45.784-143.448-111.637-173.423-25.667-11.683-45.762-32.647-56.39-58.767z" fill="url(#SVGID_1_)"/><path d="m454.99 76.725h-58.892v-15.01c0-8.286-6.725-15.01-15.01-15.01h-250.175c-8.286 0-15.01 6.725-15.01 15.01v15.01h-58.893c-8.286 0-15.01 6.725-15.01 15.01v314.47c0 8.286 6.725 15.01 15.01 15.01h58.892v15.01c0 8.286 6.725 15.01 15.01 15.01h250.175c8.286 0 15.01-6.725 15.01-15.01v-15.01h58.892c8.286 0 15.01-6.725 15.01-15.01v-314.47c.001-8.286-6.724-15.01-15.009-15.01z" fill="#590bb2" opacity=".1"/><path d="m454.99 97.725h-94.917v344.491h94.917c8.286 0 15.01-6.725 15.01-15.01v-314.47c0-8.287-6.725-15.011-15.01-15.011z" fill="#f5f4f9"/><path d="m432.123 326.009h-72.05v116.206h72.05c1.658 0 3.002-1.344 3.002-3.002v-110.202c0-1.658-1.344-3.002-3.002-3.002z" fill="#ffbe92"/><path d="m432.123 183.553h-72.05v116.206h72.05c1.658 0 3.002-1.344 3.002-3.002v-110.202c0-1.658-1.344-3.002-3.002-3.002z" fill="#ffe783"/><path d="m454.99 97.725h-94.917v48.205h109.927v-33.195c0-8.29-6.721-15.01-15.01-15.01z" fill="#fdd250"/><path d="m148.925 97.725h-91.915c-8.286 0-15.01 6.725-15.01 15.01v314.47c0 8.286 6.725 15.01 15.01 15.01h91.915z" fill="#f5f4f9"/><path d="m148.925 399.799v-132.092h-77.054c-1.658 0-3.002 1.344-3.002 3.002v126.088c0 1.658 1.344 3.002 3.002 3.002z" fill="#ffbe92"/><path d="m148.925 241.826v-42.029h-77.054c-1.658 0-3.002 1.344-3.002 3.002v36.025c0 1.658 1.344 3.002 3.002 3.002z" fill="#d6b0ff"/><path d="m148.925 97.725h-91.914c-8.29 0-15.01 6.72-15.01 15.01v33.195h106.925v-48.205z" fill="#ffa052"/><path d="m396.098 82.714v374.512c0 8.286-6.725 15.01-15.01 15.01h-250.175c-8.286 0-15.01-6.725-15.01-15.01v-374.512c0-8.286 6.725-15.01 15.01-15.01h250.175c8.285 0 15.01 6.724 15.01 15.01z" fill="#f5f4f9"/><path d="m115.902 146.033h280.196v135.094h-280.196z" fill="#ffbe92"/><path d="m396.098 146.033v105.374c-11.588 4.823-24.307 7.475-37.636 7.475-54.278 0-98.279-44.011-98.279-98.289 0-4.943.37-9.807 1.071-14.56z" fill="#ffa052"/><path d="m396.098 115.909v-33.195c0-8.29-6.72-15.01-15.01-15.01h-250.175c-8.29 0-15.01 6.72-15.01 15.01v33.195z" fill="#c182f9"/><g fill="#590bb2"><path d="m454.99 92.725h-53.892v-10.011c0-11.033-8.977-20.01-20.01-20.01h-250.175c-11.034 0-20.01 8.977-20.01 20.01v10.011h-53.892c-11.034 0-20.011 8.976-20.011 20.01v314.467c0 11.034 8.977 20.011 20.011 20.011h31.351c2.761 0 5-2.238 5-5s-2.239-5-5-5h-31.351c-5.52 0-10.011-4.491-10.011-10.011v-276.272h63.902v306.293c0 11.034 8.977 20.011 20.01 20.011h250.175c11.034 0 20.01-8.977 20.01-20.011v-10.01h53.892c11.034 0 20.01-8.977 20.01-20.011v-314.467c.001-11.034-8.976-20.01-20.009-20.01zm0 10c5.52 0 10.01 4.491 10.01 10.011v28.194h-63.902v-38.205zm-324.077-30.021h250.175c5.52 0 10.01 4.49 10.01 10.01v28.195h-270.196v-28.195c0-5.52 4.491-10.01 10.011-10.01zm-83.913 68.226v-28.194c0-5.52 4.491-10.011 10.011-10.011h53.892v38.205zm407.99 296.283h-53.892v-263.743c0-2.762-2.239-5-5-5s-5 2.238-5 5v283.753c0 5.52-4.491 10.011-10.01 10.011h-250.175c-5.52 0-10.01-4.491-10.01-10.011v-336.314h270.195v25.021c0 2.762 2.239 5 5 5h68.902v276.272c0 5.52-4.491 10.011-10.01 10.011z"/><path d="m80.108 116.755c-2.761 0-5 2.238-5 5v.145c0 2.762 2.239 5 5 5s5-2.238 5-5v-.145c0-2.762-2.238-5-5-5z"/><path d="m99.447 116.755c-2.761 0-5 2.238-5 5v.145c0 2.762 2.239 5 5 5s5-2.238 5-5v-.145c0-2.762-2.239-5-5-5z"/><path d="m154.011 96.879c2.761 0 5-2.238 5-5v-.146c0-2.762-2.239-5-5-5s-5 2.238-5 5v.146c0 2.762 2.239 5 5 5z"/><path d="m173.349 96.879c2.761 0 5-2.238 5-5v-.146c0-2.762-2.239-5-5-5s-5 2.238-5 5v.146c0 2.762 2.239 5 5 5z"/><path d="m192.688 96.879c2.761 0 5-2.238 5-5v-.146c0-2.762-2.239-5-5-5s-5 2.238-5 5v.146c0 2.762 2.238 5 5 5z"/><path d="m361.997 198.428c-1.953-1.952-5.118-1.951-7.071-.001-1.953 1.953-1.953 5.119 0 7.071l2.312 2.313-2.312 2.313c-1.953 1.952-1.953 5.118 0 7.071.976.976 2.255 1.464 3.535 1.464s2.56-.488 3.536-1.465l5.847-5.848c1.953-1.952 1.953-5.118 0-7.07z"/><path d="m157.074 198.427c-1.952-1.951-5.119-1.952-7.071.001l-5.847 5.848c-1.953 1.952-1.953 5.118 0 7.07l5.847 5.848c.977.977 2.256 1.465 3.536 1.465 1.279 0 2.559-.488 3.535-1.464 1.953-1.953 1.953-5.119 0-7.071l-2.312-2.313 2.312-2.313c1.953-1.952 1.953-5.118 0-7.071z"/></g><circle cx="239.078" cy="262.841" fill="#b557ff" r="5.594"/><circle cx="256" cy="262.841" fill="#ff8736" r="5.594"/><circle cx="272.922" cy="262.841" fill="#ff8736" r="5.594"/><path d="m199.406 359.104h-62.71c-1.658 0-3.002-1.344-3.002-3.002v-44.698c0-1.658 1.344-3.002 3.002-3.002h62.71c1.658 0 3.002 1.344 3.002 3.002v44.698c0 1.658-1.344 3.002-3.002 3.002z" fill="#c182f9"/><path d="m188.983 359.103h-24.017v-29.423c0-1.658 1.344-3.002 3.002-3.002h18.013c1.658 0 3.002 1.344 3.002 3.002z" fill="#d6b0ff"/><path d="m185.434 384.665h-34.767c-2.768 0-5.012-2.244-5.012-5.012s2.243-5.012 5.012-5.012h34.767c2.768 0 5.012 2.244 5.012 5.012s-2.244 5.012-5.012 5.012z" fill="#ffa052"/><path d="m199.902 420.647h-61.197c-2.768 0-5.012-2.244-5.012-5.012s2.243-5.012 5.012-5.012h61.197c2.768 0 5.012 2.244 5.012 5.012s-2.244 5.012-5.012 5.012z" fill="#ddd9e4"/><path d="m199.902 440.16h-61.197c-2.768 0-5.012-2.244-5.012-5.012s2.243-5.012 5.012-5.012h61.197c2.768 0 5.012 2.244 5.012 5.012s-2.244 5.012-5.012 5.012z" fill="#ddd9e4"/><path d="m286.102 359.104h-62.71c-1.658 0-3.002-1.344-3.002-3.002v-44.698c0-1.658 1.344-3.002 3.002-3.002h62.71c1.658 0 3.002 1.344 3.002 3.002v44.698c0 1.658-1.344 3.002-3.002 3.002z" fill="#c182f9"/><path d="m275.68 359.103h-24.017v-29.423c0-1.658 1.344-3.002 3.002-3.002h18.013c1.658 0 3.002 1.344 3.002 3.002z" fill="#d6b0ff"/><path d="m272.13 384.665h-34.767c-2.768 0-5.012-2.244-5.012-5.012s2.243-5.012 5.012-5.012h34.767c2.768 0 5.012 2.244 5.012 5.012s-2.243 5.012-5.012 5.012z" fill="#ffa052"/><path d="m286.599 420.647h-61.197c-2.768 0-5.012-2.244-5.012-5.012s2.243-5.012 5.012-5.012h61.197c2.768 0 5.012 2.244 5.012 5.012s-2.244 5.012-5.012 5.012z" fill="#ddd9e4"/><path d="m286.599 440.16h-61.197c-2.768 0-5.012-2.244-5.012-5.012s2.243-5.012 5.012-5.012h61.197c2.768 0 5.012 2.244 5.012 5.012s-2.244 5.012-5.012 5.012z" fill="#ddd9e4"/><path d="m372.799 359.104h-62.71c-1.658 0-3.002-1.344-3.002-3.002v-44.698c0-1.658 1.344-3.002 3.002-3.002h62.71c1.658 0 3.002 1.344 3.002 3.002v44.698c0 1.658-1.344 3.002-3.002 3.002z" fill="#c182f9"/><path d="m362.376 359.103h-24.016v-29.423c0-1.658 1.344-3.002 3.002-3.002h18.013c1.658 0 3.002 1.344 3.002 3.002v29.423z" fill="#d6b0ff"/><path d="m358.827 384.665h-34.767c-2.768 0-5.012-2.244-5.012-5.012s2.243-5.012 5.012-5.012h34.767c2.768 0 5.012 2.244 5.012 5.012s-2.244 5.012-5.012 5.012z" fill="#ffa052"/><path d="m373.295 420.647h-61.197c-2.768 0-5.012-2.244-5.012-5.012s2.243-5.012 5.012-5.012h61.197c2.768 0 5.012 2.244 5.012 5.012s-2.244 5.012-5.012 5.012z" fill="#ddd9e4"/><path d="m373.295 440.16h-61.197c-2.768 0-5.012-2.244-5.012-5.012s2.243-5.012 5.012-5.012h61.197c2.768 0 5.012 2.244 5.012 5.012s-2.244 5.012-5.012 5.012z" fill="#ddd9e4"/><path d="m422.884 78.704c-1.326 0-2.598-.526-3.536-1.465l-11.018-11.019c-.938-.938-1.464-2.209-1.464-3.535s.527-2.598 1.464-3.535l11.018-11.018c1.953-1.953 5.118-1.953 7.071 0l11.018 11.018c.938.938 1.464 2.209 1.464 3.535s-.527 2.598-1.464 3.535l-11.017 11.019c-.938.939-2.21 1.465-3.536 1.465zm-3.946-16.018 3.947 3.947 3.947-3.947-3.947-3.946z" fill="#ffa052"/><path d="m85.691 492.515c-1.326 0-2.598-.526-3.536-1.465l-11.018-11.019c-.938-.938-1.464-2.209-1.464-3.535s.527-2.598 1.464-3.535l11.018-11.018c1.953-1.953 5.118-1.953 7.071 0l11.018 11.018c.938.938 1.464 2.209 1.464 3.535s-.527 2.598-1.464 3.535l-11.017 11.019c-.937.938-2.209 1.465-3.536 1.465zm-3.946-16.019 3.947 3.947 3.947-3.947-3.947-3.946z" fill="#c182f9"/><path d="m375.801 50.539c-1.28 0-2.559-.488-3.536-1.465l-11.018-11.018c-.938-.938-1.464-2.209-1.464-3.535s.527-2.598 1.464-3.535l11.018-11.018c1.954-1.953 5.119-1.952 7.071 0l11.018 11.018c1.953 1.952 1.953 5.118 0 7.07l-11.018 11.018c-.976.977-2.255 1.465-3.535 1.465zm-3.947-16.018 3.947 3.946 3.946-3.946-3.946-3.946z" fill="#c182f9"/><path d="m442.049 493.496c-2.761 0-5-2.238-5-5 0-3.318-2.7-6.018-6.018-6.018-2.761 0-5-2.238-5-5s2.239-5 5-5c3.318 0 6.018-2.699 6.018-6.018 0-2.762 2.239-5 5-5s5 2.238 5 5c0 3.318 2.7 6.018 6.018 6.018 2.761 0 5 2.238 5 5s-2.239 5-5 5c-3.318 0-6.018 2.699-6.018 6.018 0 2.762-2.239 5-5 5z" fill="#ffe783"/></svg>