<svg id="Capa_1" enable-background="new 0 0 512 512" height="512" viewBox="0 0 512 512" width="512" xmlns="http://www.w3.org/2000/svg"><g><g><path d="m468.897 387.904h-41.338c-4.151 0-7.516-3.365-7.516-7.516s3.365-7.516 7.516-7.516h39.834v-128.641l-26.477-26.477c-2.555-2.555-3.962-5.953-3.962-9.566v-62.929c0-4.151 3.365-7.516 7.516-7.516s7.516 3.365 7.516 7.516v62.306l26.477 26.477c2.555 2.555 3.962 5.953 3.962 9.567v130.766c.001 7.46-6.068 13.529-13.528 13.529z" fill="#b1abb5"/></g><g><path d="m498.471 420.849h-72.916c-4.151 0-7.516-3.365-7.516-7.516s3.365-7.516 7.516-7.516h71.413v-207.26l-26.477-26.477c-2.556-2.557-3.962-5.954-3.962-9.567v-86.061c0-4.151 3.365-7.516 7.516-7.516s7.516 3.365 7.516 7.516v85.439l26.477 26.477c2.555 2.555 3.962 5.953 3.962 9.566v209.386c0 7.46-6.069 13.529-13.529 13.529z" fill="#b1abb5"/></g><g><path d="m491.695 463.25h-73.155c-4.151 0-7.516-3.365-7.516-7.516s3.365-7.516 7.516-7.516h73.155c4.151 0 7.516 3.365 7.516 7.516s-3.365 7.516-7.516 7.516z" fill="#b1abb5"/></g><g><circle cx="491.695" cy="455.734" fill="#786e79" r="14.388"/></g><g><circle cx="444.738" cy="143.337" fill="#786e79" r="14.388"/></g><g><circle cx="474.3" cy="76.452" fill="#786e79" r="14.388"/></g><g><path d="m83.439 387.904h-41.338c-7.46 0-13.529-6.069-13.529-13.529v-130.766c0-3.614 1.407-7.012 3.962-9.567l26.477-26.477v-33.529c0-4.151 3.365-7.516 7.516-7.516s7.516 3.365 7.516 7.516v34.152c0 3.613-1.407 7.011-3.963 9.566l-26.477 26.477v128.641h39.834c4.151 0 7.516 3.365 7.516 7.516.001 4.151-3.364 7.516-7.514 7.516z" fill="#b1abb5"/></g><g><path d="m86.445 420.849h-72.916c-7.46 0-13.529-6.069-13.529-13.529v-209.386c0-3.613 1.407-7.011 3.962-9.566l26.477-26.477v-140.832c0-4.151 3.365-7.516 7.516-7.516s7.516 3.365 7.516 7.516v141.454c0 3.613-1.407 7.01-3.961 9.565l-26.478 26.479v207.26h71.413c4.151 0 7.516 3.365 7.516 7.516s-3.365 7.516-7.516 7.516z" fill="#b1abb5"/></g><g><path d="m94.462 463.25h-73.155c-4.151 0-7.516-3.365-7.516-7.516s3.365-7.516 7.516-7.516h73.155c4.151 0 7.516 3.365 7.516 7.516s-3.365 7.516-7.516 7.516z" fill="#b1abb5"/></g><g><circle cx="21.307" cy="455.734" fill="#786e79" r="14.388"/></g><g><circle cx="66.26" cy="168.106" fill="#786e79" r="14.388"/></g><g><circle cx="37.7" cy="21.059" fill="#786e79" r="14.388"/></g><g><path d="m255.538 7.172c-81.411.227-146.864 67.296-146.864 148.707v32.027c0 4.428 3.589 8.017 8.017 8.017h35.398c4.428 0 8.017-3.589 8.017-8.017v-32.231c0-52.77 42.137-96.556 94.904-97.067 53.284-.517 96.796 42.679 96.796 95.846v143.311h51.432v-143.312c0-81.351-66.298-147.509-147.7-147.281z" fill="#b1abb5"/></g><g><g><g><path d="m255.956 7.171c-5.344 0-10.617.303-15.815.861 73.8 7.916 131.467 70.553 131.467 146.421v143.311h31.629v-143.311c.001-81.211-66.07-147.282-147.281-147.282z" fill="#786e79"/></g></g></g><g><g><path d="m410.175 505.329h-308.439c-10.217 0-18.5-8.283-18.5-18.5v-224.054c0-10.217 8.283-18.5 18.5-18.5h308.439c10.217 0 18.5 8.283 18.5 18.5v224.054c0 10.217-8.283 18.5-18.5 18.5z" fill="#786e79"/></g></g><g><path d="m410.136 244.275h-22.469v201.506c0 10.239-8.3 18.539-18.539 18.539h-285.892v22.47c0 10.239 8.3 18.539 18.539 18.539h308.36c10.239 0 18.539-8.3 18.539-18.539v-223.976c.001-10.239-8.299-18.539-18.538-18.539z" fill="#453e43"/></g><g><g><g><path d="m250.998 430.481c-19.641.001-36.37-14.473-39.091-33.973-.252-1.805-.38-3.654-.38-5.494 0-4.151 3.365-7.516 7.516-7.516s7.516 3.365 7.516 7.516c0 1.146.079 2.296.236 3.415 1.684 12.066 12.044 21.02 24.207 21.02.166 0 .333-.002.5-.005 12.739-.257 23.234-10.413 23.893-23.12.352-6.782-2.021-13.219-6.682-18.128-4.664-4.913-10.956-7.618-17.719-7.618-8.946 0-12.816 1.431-17.307 3.452-.582.262-.936.438-1.008.476-2.527 1.288-5.573 1.048-7.861-.626-2.289-1.675-3.449-4.491-2.985-7.289l7.776-46.931c.601-3.628 3.738-6.288 7.415-6.288h39.25c4.151 0 7.516 3.365 7.516 7.516s-3.365 7.516-7.516 7.516h-32.877l-4.671 28.191c3.446-.683 7.363-1.047 12.269-1.047 10.926 0 21.09 4.368 28.62 12.299 7.528 7.928 11.36 18.318 10.792 29.257-1.065 20.541-18.022 36.955-38.602 37.369-.269.005-.54.008-.807.008z" fill="#f1f0f3"/></g></g><g><g><path d="m156.002 428.415c-19.746 0-21.15-.468-22.177-.81-2.564-.854-4.475-2.78-5.245-5.285-1.365-4.436.368-6.705 6.814-15.144 5.324-6.971 15.234-19.947 31.835-43.666 5.145-7.351 8.46-13.983 9.86-19.72l.4-3.131c-.234-10.394-8.762-18.776-19.211-18.776-9.163 0-17.092 6.512-18.854 15.483-.8 4.073-4.751 6.723-8.823 5.927-4.073-.8-6.727-4.75-5.927-8.823 3.143-16.003 17.275-27.618 33.604-27.618 18.884 0 34.247 15.364 34.247 34.247 0 .319-.02.637-.061.953l-.517 4.041c-.032.251-.076.498-.134.744-1.785 7.699-5.913 16.208-12.271 25.293-14.677 20.97-24.193 33.649-29.954 41.221 10.305.039 25.542-.05 39.753-.227.032-.001.065-.001.096-.001 4.107 0 7.462 3.303 7.513 7.422.052 4.15-3.271 7.557-7.421 7.609-14.853.187-25.649.261-33.527.261zm-18.449-15.32" fill="#f1f0f3"/></g></g><g><g><path d="m316.777 394.521c-.286 0-.575-.017-.867-.05-4.124-.474-7.083-4.2-6.61-8.324 5.47-47.633 38.732-72.874 40.145-73.925 3.33-2.478 8.039-1.785 10.516 1.544 2.473 3.325 1.788 8.024-1.529 10.505-.295.221-29.495 22.626-34.199 63.591-.439 3.832-3.689 6.658-7.456 6.659z" fill="#f1f0f3"/></g><g><path d="m346.648 429.115c-20.801 0-37.725-16.924-37.725-37.725s16.924-37.724 37.725-37.724c20.802 0 37.725 16.924 37.725 37.724 0 20.802-16.923 37.725-37.725 37.725zm0-60.418c-12.513 0-22.693 10.18-22.693 22.693s10.18 22.694 22.693 22.694 22.694-10.181 22.694-22.694-10.181-22.693-22.694-22.693z" fill="#f1f0f3"/></g></g></g></g></svg>